<svg xmlns="http://www.w3.org/2000/svg" viewBox="33 38 180 180">
<path d="M0 0 C16.71536937 14.00476893 27.62502464 33.32889813 30.45703125 55.05859375 C31.88653629 77.06205157 28.08893666 99.75334902 13.28125 117.0234375 C12.37826172 118.03083984 12.37826172 118.03083984 11.45703125 119.05859375 C10.80347656 119.86425781 10.14992187 120.66992188 9.4765625 121.5 C-3.39817989 136.86057608 -22.74966394 146.53025189 -42.54296875 149.05859375 C-66.89344072 150.42632606 -89.42292076 145.51438082 -108.17016602 129.15405273 C-123.42231719 115.39108045 -135.52407398 96.55939192 -136.68383789 75.50073242 C-137.44302113 52.63200221 -134.33205853 30.2776039 -118.73046875 12.390625 C-118.00859375 11.62105469 -117.28671875 10.85148437 -116.54296875 10.05859375 C-115.69734375 9.13433594 -114.85171875 8.21007812 -113.98046875 7.2578125 C-108.06221972 1.04533234 -102.0350894 -3.77425593 -94.54296875 -7.94140625 C-93.73214844 -8.40160156 -92.92132813 -8.86179687 -92.0859375 -9.3359375 C-62.38870412 -25.21604129 -26.16086009 -20.12072148 0 0 Z " fill="#F26321" transform="translate(176.54296875,57.94140625)"/>
<path d="M0 0 C1.5778125 0.2475 1.5778125 0.2475 3.1875 0.5 C0.4945018 11.5951526 0.4945018 11.5951526 -1 16 C-2.01855738 18.69590311 -2.01855738 18.69590311 -1.8125 22.5 C-0.8225 22.5 0.1675 22.5 1.1875 22.5 C3.1675 15.9 5.1475 9.3 7.1875 2.5 C9.8275 2.83 12.4675 3.16 15.1875 3.5 C15.05472656 4.07105469 14.92195313 4.64210938 14.78515625 5.23046875 C13.24683154 12.29328805 12.61685274 19.29139345 12.1875 26.5 C13.1775 26.17 14.1675 25.84 15.1875 25.5 C16.5075 18.9 17.8275 12.3 19.1875 5.5 C24.1875 6.5 24.1875 6.5 26.1875 8.5 C27.47149936 18.86640657 25.83944815 32.073684 21.1875 41.5 C18.11412408 45.13217154 15.7647402 45.5814584 11.24536133 46.03588867 C7.49657233 46.73108515 7.49657233 46.73108515 4.79598999 49.22988892 C3.75537029 51.62058853 3.01415228 53.97376279 2.32421875 56.48828125 C1.89711357 57.83130562 1.89711357 57.83130562 1.46138 59.20146179 C0.55874443 62.06107067 -0.28548685 64.93379087 -1.125 67.8125 C-1.99138792 70.6766142 -2.86976958 73.53615266 -3.76493835 76.3914032 C-4.31816244 78.16640302 -4.85343799 79.94712684 -5.36799622 81.73371887 C-6.91990576 86.83508623 -8.47642005 90.09675813 -12.8125 93.5 C-15.8125 94.125 -15.8125 94.125 -18.8125 93.5 C-21.75 91.5625 -21.75 91.5625 -23.8125 88.5 C-24.05599255 82.46336337 -22.12313992 76.72703809 -20.0546875 71.140625 C-19.50642379 69.59768703 -18.95824927 68.05471736 -18.41015625 66.51171875 C-17.54671366 64.11863658 -16.67916595 61.72710106 -15.80908203 59.33642578 C-14.96403122 57.00385727 -14.13382984 54.66638632 -13.3046875 52.328125 C-13.04017792 51.61658264 -12.77566833 50.90504028 -12.50314331 50.17193604 C-11.11462096 46.24057118 -10.4166338 43.49310008 -11.8125 39.5 C-12.328125 38.736875 -12.84375 37.97375 -13.375 37.1875 C-15.98405565 32.3097003 -15.17201674 27.2005693 -13.67578125 22.0625 C-13.17136852 20.53747035 -12.65425295 19.01658793 -12.125 17.5 C-11.88072266 16.74460937 -11.63644531 15.98921875 -11.38476562 15.2109375 C-6.51282883 0.85414149 -6.51282883 0.85414149 0 0 Z " fill="#FEFBFA" transform="translate(156.8125,79.5)"/>
<path d="M0 0 C3.22677738 0.94140146 4.14789114 2.83368243 6.03515625 5.59375 C7.43562428 8.75516618 8.53547989 12.00148309 9.63671875 15.27734375 C9.95925629 16.2104689 10.28179382 17.14359406 10.61410522 18.10499573 C11.63897282 21.07724219 12.64970391 24.05407597 13.66015625 27.03125 C14.34673452 29.02961379 15.03422516 31.02766437 15.72265625 33.02539062 C17.25914812 37.49188306 18.79152742 41.95965944 20.30082703 46.4354248 C20.9342399 48.29713876 21.59259934 50.15033094 22.25561523 52.00170898 C24.14865032 58.29621367 21.12392466 64.97255043 19.09765625 70.96875 C18.83275391 71.78730469 18.56785156 72.60585937 18.29492188 73.44921875 C18.03517578 74.22652344 17.77542969 75.00382812 17.5078125 75.8046875 C17.27328369 76.50899902 17.03875488 77.21331055 16.79711914 77.93896484 C16.03515625 79.59375 16.03515625 79.59375 14.03515625 80.59375 C10.07515625 69.04375 6.11515625 57.49375 2.03515625 45.59375 C-0.93484375 45.26375 -3.90484375 44.93375 -6.96484375 44.59375 C-13.40835119 37.98502442 -13.33289713 28.288724 -13.34204102 19.55834961 C-13.17271734 12.9547263 -11.75752935 7.06891775 -7.57421875 1.86328125 C-5.2483569 0.02856013 -2.87699922 0.13304043 0 0 Z " fill="#FEFCFA" transform="translate(78.96484375,79.40625)"/>
<path d="M0 0 C2.97819304 0.09205324 4.02122686 0.31014179 6.625 1.9375 C8.90691511 5.64561205 8.64242724 9.20100793 7.64196777 13.40447998 C6.95585838 15.64323718 6.20415255 17.84770254 5.421875 20.0546875 C5.14281311 20.86688751 4.86375122 21.67908752 4.57623291 22.51589966 C3.98603861 24.22702776 3.39070496 25.93639092 2.79052734 27.64404297 C1.88148448 30.23154259 0.98822061 32.82405852 0.09765625 35.41796875 C-0.48084902 37.08886111 -1.06024763 38.75944449 -1.640625 40.4296875 C-2.03619598 41.5738765 -2.03619598 41.5738765 -2.4397583 42.74118042 C-3.81137403 46.63238422 -5.26442259 50.49049348 -6.82714844 54.30908203 C-7.27063629 55.40616989 -7.27063629 55.40616989 -7.7230835 56.52542114 C-9.16459098 58.83998279 -10.32361176 59.47124549 -12.875 60.375 C-16.88608265 60.30463013 -19.03306426 60.24324624 -21.875 57.3125 C-24.02620175 50.99334485 -21.42469715 44.31581019 -19.29296875 38.25390625 C-19.03751785 37.50970932 -18.78206696 36.76551239 -18.51887512 35.99876404 C-17.98040536 34.43531174 -17.43817063 32.87315148 -16.89233398 31.31225586 C-16.06691721 28.95014084 -15.25420295 26.58394887 -14.44335938 24.21679688 C-6.30661567 0.61031765 -6.30661567 0.61031765 0 0 Z " fill="#FEFCFA" transform="translate(119.875,112.625)"/>
</svg>
