<?xml version="1.0" encoding="UTF-8"?>
<svg version="1.1" xmlns="http://www.w3.org/2000/svg" width="1000" height="247">
<path d="M0 0 C16.71536937 14.00476893 27.62502464 33.32889813 30.45703125 55.05859375 C31.88653629 77.06205157 28.08893666 99.75334902 13.28125 117.0234375 C12.37826172 118.03083984 12.37826172 118.03083984 11.45703125 119.05859375 C10.80347656 119.86425781 10.14992187 120.66992188 9.4765625 121.5 C-3.39817989 136.86057608 -22.74966394 146.53025189 -42.54296875 149.05859375 C-66.89344072 150.42632606 -89.42292076 145.51438082 -108.17016602 129.15405273 C-123.42231719 115.39108045 -135.52407398 96.55939192 -136.68383789 75.50073242 C-137.44302113 52.63200221 -134.33205853 30.2776039 -118.73046875 12.390625 C-118.00859375 11.62105469 -117.28671875 10.85148437 -116.54296875 10.05859375 C-115.69734375 9.13433594 -114.85171875 8.21007812 -113.98046875 7.2578125 C-108.06221972 1.04533234 -102.0350894 -3.77425593 -94.54296875 -7.94140625 C-93.73214844 -8.40160156 -92.92132813 -8.86179687 -92.0859375 -9.3359375 C-62.38870412 -25.21604129 -26.16086009 -20.12072148 0 0 Z " fill="#F26321" transform="translate(176.54296875,57.94140625)"/>
<path d="M0 0 C40.68 0 40.68 0 48.375 7.125 C52.51763317 12.52542429 54.40556497 18.83805796 53.9375 25.625 C52.94205084 31.61887471 50.71296924 36.79727527 46.0625 40.8125 C43.43259801 42.69100142 40.7795663 44.3585979 38 46 C38.44915771 46.83772949 38.89831543 47.67545898 39.36108398 48.53857422 C41.02553179 51.64327274 42.68973057 54.74810446 44.35375977 57.85302734 C45.0743628 59.19748203 45.79506541 60.54188337 46.51586914 61.88623047 C47.55120532 63.81724288 48.58618468 65.74844616 49.62109375 67.6796875 C50.2442749 68.84226074 50.86745605 70.00483398 51.50952148 71.20263672 C52.35676923 72.79277015 53.1942267 74.38845339 54 76 C48.72 76 43.44 76 38 76 C36.91584114 74.05237074 35.83198085 72.10457476 34.74951172 70.15600586 C33.830244 68.50507942 32.90736537 66.85615864 31.98095703 65.20922852 C28.98686947 59.86761191 26.21664891 54.47702874 23.7421875 48.87109375 C21.50714323 46.06943355 21.50714323 46.06943355 14 46 C14 55.9 14 65.8 14 76 C9.38 76 4.76 76 0 76 C0 50.92 0 25.84 0 0 Z M14 12 C14 19.26 14 26.52 14 34 C16.84625 34.0825 19.6925 34.165 22.625 34.25 C23.95265381 34.30462402 23.95265381 34.30462402 25.30712891 34.36035156 C30.69338604 34.43551428 33.74911137 33.61425009 38 30 C39.91303463 26.9225095 40.00253398 25.14190292 39.9375 21.5 C38.8177994 17.31978443 37.33213164 15.6974399 34 13 C31.29283758 12.09761253 29.76223232 11.88148698 26.98828125 11.90234375 C26.30548096 11.90484131 25.62268066 11.90733887 24.91918945 11.90991211 C24.05898193 11.91901611 23.19877441 11.92812012 22.3125 11.9375 C19.569375 11.958125 16.82625 11.97875 14 12 Z " fill="#FFFFFF" transform="translate(242,86)"/>
<path d="M0 0 C5.28 0 10.56 0 16 0 C19.34031047 7.95593824 22.5845316 15.93897576 25.72265625 23.9765625 C26.15001572 25.06786469 26.57737518 26.15916687 27.01768494 27.28353882 C28.36718112 30.73021482 29.71492622 34.17757198 31.0625 37.625 C32.41397434 41.07943898 33.76582398 44.5337306 35.11802673 47.98788452 C35.95442929 50.12475523 36.79036688 52.26180801 37.62574768 54.39907837 C38.00972214 55.38064911 38.39369659 56.36221985 38.78930664 57.37353516 C39.15597443 58.31304016 39.52264221 59.25254517 39.90042114 60.22052002 C40.64439171 62.10110483 41.40287631 63.9760018 42.17453003 65.84539795 C42.72513596 67.18142059 42.72513596 67.18142059 43.28686523 68.54443359 C43.61669907 69.33208099 43.9465329 70.11972839 44.28636169 70.9312439 C45 73 45 73 45 76 C40.05 76 35.1 76 30 76 C27.69 70.06 25.38 64.12 23 58 C12.77 57.67 2.54 57.34 -8 57 C-8.99 60.3 -9.98 63.6 -11 67 C-12.21876703 70.0734125 -13.5978257 73.00224804 -15 76 C-19.62 76 -24.24 76 -29 76 C-27.11954197 69.51183024 -25.04108776 63.21341397 -22.55859375 56.93359375 C-22.234319 56.10420288 -21.91004425 55.27481201 -21.57594299 54.42028809 C-20.53371256 51.7578033 -19.48577543 49.09760983 -18.4375 46.4375 C-17.71784523 44.60304548 -16.99844561 42.76849084 -16.27929688 40.93383789 C-10.91538246 27.26423654 -5.49459874 13.61762331 0 0 Z M7 16 C5.57169148 19.80704999 4.14763945 23.61566157 2.72753906 27.42578125 C2.24368589 28.72211806 1.75866515 30.0180197 1.27246094 31.31347656 C0.57441411 33.17398505 -0.11910947 35.03618865 -0.8125 36.8984375 C-1.23144531 38.01911621 -1.65039062 39.13979492 -2.08203125 40.29443359 C-3.10709969 42.83948363 -3.10709969 42.83948363 -3 45 C4.26 45 11.52 45 19 45 C17.61914256 41.02812407 16.23407482 37.05830089 14.83740234 33.09204102 C14.36341885 31.7417241 13.89205232 30.39048567 13.42333984 29.03833008 C12.74999389 27.09730003 12.06737177 25.15975544 11.3828125 23.22265625 C10.97434082 22.05484619 10.56586914 20.88703613 10.14501953 19.68383789 C9.28872856 16.87470135 9.28872856 16.87470135 7 16 Z " fill="#F16220" transform="translate(816,86)"/>
<path d="M0 0 C39.76470588 0 39.76470588 0 47.375 7.1875 C52.43697463 13.82869792 53.58252716 20.29072368 52.5078125 28.48828125 C51.29914598 34.46653182 48.45623755 37.97851733 44 42 C43.401875 42.556875 42.80375 43.11375 42.1875 43.6875 C36.00177934 47.3989324 28.97828522 47.26324443 22 47.125 C19.03 47.08375 16.06 47.0425 13 47 C13 56.57 13 66.14 13 76 C8.71 76 4.42 76 0 76 C0 50.92 0 25.84 0 0 Z M13 12 C13 19.59 13 27.18 13 35 C25.28520351 35.70585544 25.28520351 35.70585544 36.375 31.375 C38.63278364 28.07516237 39.18894675 24.92253462 39 21 C37.82429598 17.53820482 36.79744756 15.64897843 33.96484375 13.34375 C29.81587638 11.4633221 26.17737334 11.67536449 21.6875 11.8125 C18.820625 11.874375 15.95375 11.93625 13 12 Z " fill="#F26220" transform="translate(871,86)"/>
<path d="M0 0 C1.5778125 0.2475 1.5778125 0.2475 3.1875 0.5 C0.4945018 11.5951526 0.4945018 11.5951526 -1 16 C-2.01855738 18.69590311 -2.01855738 18.69590311 -1.8125 22.5 C-0.8225 22.5 0.1675 22.5 1.1875 22.5 C3.1675 15.9 5.1475 9.3 7.1875 2.5 C9.8275 2.83 12.4675 3.16 15.1875 3.5 C15.05472656 4.07105469 14.92195313 4.64210938 14.78515625 5.23046875 C13.24683154 12.29328805 12.61685274 19.29139345 12.1875 26.5 C13.1775 26.17 14.1675 25.84 15.1875 25.5 C16.5075 18.9 17.8275 12.3 19.1875 5.5 C24.1875 6.5 24.1875 6.5 26.1875 8.5 C27.47149936 18.86640657 25.83944815 32.073684 21.1875 41.5 C18.11412408 45.13217154 15.7647402 45.5814584 11.24536133 46.03588867 C7.49657233 46.73108515 7.49657233 46.73108515 4.79598999 49.22988892 C3.75537029 51.62058853 3.01415228 53.97376279 2.32421875 56.48828125 C1.89711357 57.83130562 1.89711357 57.83130562 1.46138 59.20146179 C0.55874443 62.06107067 -0.28548685 64.93379087 -1.125 67.8125 C-1.99138792 70.6766142 -2.86976958 73.53615266 -3.76493835 76.3914032 C-4.31816244 78.16640302 -4.85343799 79.94712684 -5.36799622 81.73371887 C-6.91990576 86.83508623 -8.47642005 90.09675813 -12.8125 93.5 C-15.8125 94.125 -15.8125 94.125 -18.8125 93.5 C-21.75 91.5625 -21.75 91.5625 -23.8125 88.5 C-24.05599255 82.46336337 -22.12313992 76.72703809 -20.0546875 71.140625 C-19.50642379 69.59768703 -18.95824927 68.05471736 -18.41015625 66.51171875 C-17.54671366 64.11863658 -16.67916595 61.72710106 -15.80908203 59.33642578 C-14.96403122 57.00385727 -14.13382984 54.66638632 -13.3046875 52.328125 C-13.04017792 51.61658264 -12.77566833 50.90504028 -12.50314331 50.17193604 C-11.11462096 46.24057118 -10.4166338 43.49310008 -11.8125 39.5 C-12.328125 38.736875 -12.84375 37.97375 -13.375 37.1875 C-15.98405565 32.3097003 -15.17201674 27.2005693 -13.67578125 22.0625 C-13.17136852 20.53747035 -12.65425295 19.01658793 -12.125 17.5 C-11.88072266 16.74460937 -11.63644531 15.98921875 -11.38476562 15.2109375 C-6.51282883 0.85414149 -6.51282883 0.85414149 0 0 Z " fill="#FEFBFA" transform="translate(156.8125,79.5)"/>
<path d="M0 0 C6.78974635 4.70773428 10.19795323 10.43651242 12 18.38671875 C12 22.01671875 12 25.64671875 12 29.38671875 C-0.54 29.38671875 -13.08 29.38671875 -26 29.38671875 C-23.8303184 35.36096725 -23.8303184 35.36096725 -20 39.38671875 C-15.66158916 40.8328557 -11.53401469 40.91629167 -7 40.38671875 C-3.22165479 38.13578969 -1.68517566 35.96695296 1 32.38671875 C4.3 33.37671875 7.6 34.36671875 11 35.38671875 C10.71154906 41.29996305 8.21099119 44.51411078 4 48.38671875 C-2.91572917 53.33504221 -9.6768014 54.19041385 -18 53.38671875 C-26.42112278 51.0911302 -32.4817094 47.23279987 -36.92578125 39.6484375 C-40.79004447 31.51240694 -41.00119474 22.14119159 -38.05859375 13.6796875 C-34.7593778 6.41705702 -29.78301461 0.7338774 -22.140625 -2.140625 C-14.70854065 -3.78165092 -6.80591018 -3.56559633 0 0 Z M-23.75 12.76171875 C-25.45114318 14.72526297 -25.45114318 14.72526297 -26 19.38671875 C-17.75 19.38671875 -9.5 19.38671875 -1 19.38671875 C-3.1696816 13.41247025 -3.1696816 13.41247025 -7 9.38671875 C-13.89195606 7.08940006 -18.24215941 8.43412972 -23.75 12.76171875 Z " fill="#FFFFFF" transform="translate(341,110.61328125)"/>
<path d="M0 0 C5.0707324 4.39009718 7.60543669 9.34240892 8.17398071 16.05374146 C8.22969542 18.29767627 8.22527641 20.53292983 8.1953125 22.77734375 C8.1924826 23.58869278 8.18965271 24.40004181 8.18673706 25.23597717 C8.17562663 27.80330753 8.15053971 30.37027678 8.125 32.9375 C8.11495836 34.68814597 8.10583459 36.43879746 8.09765625 38.18945312 C8.07571734 42.45977254 8.0412516 46.72982525 8 51 C6.04233719 51.08082094 4.08373272 51.13910778 2.125 51.1875 C0.48917969 51.23970703 0.48917969 51.23970703 -1.1796875 51.29296875 C-2.11039062 51.19628906 -3.04109375 51.09960938 -4 51 C-4.66 50.01 -5.32 49.02 -6 48 C-6.9075 48.639375 -7.815 49.27875 -8.75 49.9375 C-13.93948309 53.2308258 -18.93979577 53.71647735 -25 53 C-30.34114721 51.27281004 -33.88140708 48.74026124 -37 44 C-38.97812135 40.0437573 -38.42084067 35.31209207 -38 31 C-35.99130777 26.39674698 -33.35144841 23.96612865 -28.7578125 21.87890625 C-21.62676171 19.60626259 -13.47704073 18 -6 18 C-6.38725206 13.89309386 -6.38725206 13.89309386 -8.26953125 10.33203125 C-11.01622603 8.21775829 -13.41177436 8.47019334 -16.7734375 8.57421875 C-20.33744585 9.25575719 -21.89353457 11.16943707 -24 14 C-24.33 14.99 -24.66 15.98 -25 17 C-33.57142857 16 -33.57142857 16 -37 15 C-36.87687526 9.09001267 -35.08743285 5.99114212 -31.00390625 1.734375 C-23.17909288 -5.0379781 -8.6885885 -5.60107186 0 0 Z M-23.80859375 31.3515625 C-25.36609959 33.14336986 -25.36609959 33.14336986 -24.8125 36.5625 C-24.30784082 40.04248777 -24.30784082 40.04248777 -22 42 C-17.51492396 42.77143308 -13.76936067 42.30774427 -9.5625 40.625 C-5.91133416 36.88478133 -5.56154293 33.0732499 -5 28 C-11.05605481 27.73669327 -18.77982956 27.59356594 -23.80859375 31.3515625 Z " fill="#FFFFFF" transform="translate(487,111)"/>
<path d="M0 0 C4.35711831 3.17301821 6.72509269 7.13086543 7.83984375 12.33984375 C7.94809481 13.6819523 8.01457239 15.02790394 8.04516602 16.37402344 C8.07508385 17.54478424 8.07508385 17.54478424 8.10560608 18.73919678 C8.12231857 19.57162903 8.13903107 20.40406128 8.15625 21.26171875 C8.1770311 22.12170471 8.19781219 22.98169067 8.21922302 23.86773682 C8.28448114 26.60835973 8.34349292 29.3490765 8.40234375 32.08984375 C8.44555156 33.95053045 8.48916657 35.81120773 8.53320312 37.671875 C8.64013817 42.22776898 8.74147226 46.78375715 8.83984375 51.33984375 C4.54984375 51.33984375 0.25984375 51.33984375 -4.16015625 51.33984375 C-4.65515625 49.35984375 -4.65515625 49.35984375 -5.16015625 47.33984375 C-5.88203125 47.95859375 -6.60390625 48.57734375 -7.34765625 49.21484375 C-12.7620515 53.30572016 -17.50373147 54.07182173 -24.16015625 53.33984375 C-30.13415732 51.44807674 -33.81241625 48.58196089 -37.47265625 43.52734375 C-38.95488239 38.81116967 -38.6453336 34.71451291 -37.03515625 30.15234375 C-32.87846329 23.91730432 -29.58882358 22.21294016 -22.34765625 20.65234375 C-19.95354598 20.20551087 -17.55776434 19.76751074 -15.16015625 19.33984375 C-13.36619084 18.95456259 -11.57403701 18.56058278 -9.78515625 18.15234375 C-8.58890625 17.88421875 -7.39265625 17.61609375 -6.16015625 17.33984375 C-6.42672197 14.40540973 -6.42672197 14.40540973 -7.16015625 11.33984375 C-10.88815731 8.85450971 -13.84871429 8.93837345 -18.16015625 9.33984375 C-20.51337473 9.80730741 -20.51337473 9.80730741 -22.16015625 11.33984375 C-23.92743483 14.37329045 -23.92743483 14.37329045 -25.16015625 17.33984375 C-33.73158482 16.33984375 -33.73158482 16.33984375 -37.16015625 15.33984375 C-36.57108024 9.15454562 -34.26999282 5.33863629 -29.78515625 1.08984375 C-21.34705714 -4.53555566 -8.92792235 -4.6717806 0 0 Z M-23.78515625 32.15234375 C-25.39800538 34.27103812 -25.39800538 34.27103812 -25.09765625 36.90234375 C-23.85592553 40.21991106 -23.85592553 40.21991106 -21.16015625 42.33984375 C-16.89207756 42.75288362 -14.28407514 42.81438728 -10.34765625 41.15234375 C-7.79444015 39.03682184 -6.50216255 37.3770159 -5.16015625 34.33984375 C-4.90879592 31.13068204 -4.90879592 31.13068204 -5.16015625 28.33984375 C-11.70609741 28.06129306 -18.25725288 28.33545809 -23.78515625 32.15234375 Z " fill="#FFFFFF" transform="translate(645.16015625,110.66015625)"/>
<path d="M0 0 C2.14576637 -0.02685938 4.29162645 -0.04633088 6.4375 -0.0625 C7.63246094 -0.07410156 8.82742188 -0.08570312 10.05859375 -0.09765625 C13 0 13 0 14 1 C14.12306155 3.61762963 14.18609472 6.21296798 14.2109375 8.83203125 C14.23901245 10.45118187 14.26767695 12.07032236 14.296875 13.68945312 C14.33811334 16.25040335 14.37498626 18.81116567 14.40136719 21.37231445 C14.42899368 23.83845503 14.47487263 26.30372599 14.5234375 28.76953125 C14.52669037 29.53320511 14.52994324 30.29687897 14.53329468 31.08369446 C14.60643119 34.25001627 14.80501627 36.62811123 16.28759766 39.45581055 C18.61169044 41.5516028 20.93530306 41.86322248 24 42.10546875 C26.99885217 41.94732615 28.71214569 40.88411531 31 39 C33.50442112 35.24336832 33.34885437 32.18991875 33.4140625 27.83203125 C33.43342865 27.03721848 33.4527948 26.2424057 33.4727478 25.42350769 C33.53249442 22.88661405 33.57890883 20.34967491 33.625 17.8125 C33.66318435 16.09177716 33.70223635 14.37107335 33.7421875 12.65039062 C33.83819179 8.43374835 33.92224076 4.2170166 34 0 C38.29 0 42.58 0 47 0 C47.33 17.49 47.66 34.98 48 53 C43.71 53 39.42 53 35 53 C34.67 52.01 34.34 51.02 34 50 C33.0925 50.639375 32.185 51.27875 31.25 51.9375 C26.34232257 55.0519876 22.82627631 55.38841842 17 55 C10.2377235 53.36728305 6.26122006 50.23031437 2.25 44.5 C-0.33077131 39.33845739 -0.13496149 34.0811954 -0.09765625 28.41796875 C-0.09553383 27.19670036 -0.09553383 27.19670036 -0.09336853 25.95075989 C-0.08779317 23.36296844 -0.07524524 20.77526508 -0.0625 18.1875 C-0.05748181 16.42773563 -0.05291946 14.66796989 -0.04882812 12.90820312 C-0.03783181 8.60543506 -0.02058421 4.30273244 0 0 Z " fill="#FFFFFF" transform="translate(507,109)"/>
<path d="M0 0 C4.29698027 2.469031 6.78501186 5.31211588 8.71435547 9.90673828 C9.85481333 14.17198952 9.87545675 18.03789159 9.8203125 22.4296875 C9.8174826 23.28684357 9.81465271 24.14399963 9.81173706 25.02713013 C9.80059999 27.74739932 9.7755076 30.46733141 9.75 33.1875 C9.73996182 35.03905772 9.73083744 36.89062064 9.72265625 38.7421875 C9.70068188 43.2657536 9.666197 47.78906977 9.625 52.3125 C5.335 52.3125 1.045 52.3125 -3.375 52.3125 C-3.38958252 51.31395996 -3.40416504 50.31541992 -3.41918945 49.28662109 C-3.47740068 45.56263394 -3.55463077 41.83923708 -3.63745117 38.11572266 C-3.67059363 36.5077476 -3.69865854 34.89965919 -3.72143555 33.29150391 C-3.75517967 30.97249295 -3.80750194 28.65451069 -3.86328125 26.3359375 C-3.86967117 25.62319672 -3.8760611 24.91045593 -3.88264465 24.17611694 C-4.01768939 19.53512632 -4.84712854 16.22303998 -7.375 12.3125 C-11.01282632 11.09989123 -13.55235999 10.91705448 -17.375 11.3125 C-20.53454305 13.85387159 -22.09040886 15.45872659 -23.375 19.3125 C-23.5279647 21.82304905 -23.63195178 24.31138525 -23.69140625 26.82421875 C-23.71218735 27.55244339 -23.73296844 28.28066803 -23.75437927 29.03096008 C-23.81968746 31.35387875 -23.87867237 33.67690906 -23.9375 36 C-23.98070305 37.57618335 -24.02431792 39.15235548 -24.06835938 40.72851562 C-24.1753496 44.58972975 -24.27666961 48.45105603 -24.375 52.3125 C-28.665 52.3125 -32.955 52.3125 -37.375 52.3125 C-37.375 34.8225 -37.375 17.3325 -37.375 -0.6875 C-33.085 -0.6875 -28.795 -0.6875 -24.375 -0.6875 C-24.045 0.6325 -23.715 1.9525 -23.375 3.3125 C-22.446875 2.673125 -21.51875 2.03375 -20.5625 1.375 C-14.25821193 -2.70424522 -6.86388899 -3.19370445 0 0 Z " fill="#FFFFFF" transform="translate(704.375,109.6875)"/>
<path d="M0 0 C5.49018688 2.55381574 8.60313253 5.86959026 10.76171875 11.58984375 C11.00921875 12.47671875 11.25671875 13.36359375 11.51171875 14.27734375 C10.26508544 14.78567966 9.01422488 15.2836552 7.76171875 15.77734375 C7.065625 16.05578125 6.36953125 16.33421875 5.65234375 16.62109375 C3.51171875 17.27734375 3.51171875 17.27734375 -0.48828125 17.27734375 C-1.52617706 15.63400871 -2.52396049 13.96490508 -3.48828125 12.27734375 C-6.11684977 10.28325729 -7.28140671 10.26079379 -10.61328125 10.52734375 C-13.59425923 11.0461754 -13.59425923 11.0461754 -15.48828125 13.27734375 C-15.16786728 15.88014943 -15.16786728 15.88014943 -14.48828125 18.27734375 C-13.35390625 18.55707031 -12.21953125 18.83679688 -11.05078125 19.125 C5.286647 23.38678037 5.286647 23.38678037 10.51171875 30.27734375 C11.9618843 34.6278404 12.02241982 38.7306856 11.51171875 43.27734375 C8.83601147 48.62875831 5.23635926 52.01006909 -0.17578125 54.52734375 C-8.5769499 56.42949514 -15.95641469 55.59846791 -23.48828125 51.27734375 C-27.8100804 47.76524936 -29.32830567 43.54996003 -30.48828125 38.27734375 C-26.52828125 37.28734375 -22.56828125 36.29734375 -18.48828125 35.27734375 C-18.05515625 36.22609375 -17.62203125 37.17484375 -17.17578125 38.15234375 C-15.69525924 41.47776312 -15.69525924 41.47776312 -12.48828125 43.27734375 C-9.72807129 43.64901559 -7.29975649 43.45585011 -4.48828125 43.27734375 C-2.20099391 41.43850494 -2.20099391 41.43850494 -2.36328125 38.65234375 C-2.40453125 37.86859375 -2.44578125 37.08484375 -2.48828125 36.27734375 C-6.8394146 34.58523634 -11.10020345 33.09899317 -15.61328125 31.90234375 C-20.83873297 30.36686486 -24.69272932 28.21833397 -27.62109375 23.421875 C-29.21967732 19.46862102 -29.02419306 15.45877914 -28.48828125 11.27734375 C-22.86263585 0.02605295 -11.7800238 -3.42120001 0 0 Z " fill="#FFFFFF" transform="translate(389.48828125,108.72265625)"/>
<path d="M0 0 C3.22677738 0.94140146 4.14789114 2.83368243 6.03515625 5.59375 C7.43562428 8.75516618 8.53547989 12.00148309 9.63671875 15.27734375 C9.95925629 16.2104689 10.28179382 17.14359406 10.61410522 18.10499573 C11.63897282 21.07724219 12.64970391 24.05407597 13.66015625 27.03125 C14.34673452 29.02961379 15.03422516 31.02766437 15.72265625 33.02539062 C17.25914812 37.49188306 18.79152742 41.95965944 20.30082703 46.4354248 C20.9342399 48.29713876 21.59259934 50.15033094 22.25561523 52.00170898 C24.14865032 58.29621367 21.12392466 64.97255043 19.09765625 70.96875 C18.83275391 71.78730469 18.56785156 72.60585937 18.29492188 73.44921875 C18.03517578 74.22652344 17.77542969 75.00382812 17.5078125 75.8046875 C17.27328369 76.50899902 17.03875488 77.21331055 16.79711914 77.93896484 C16.03515625 79.59375 16.03515625 79.59375 14.03515625 80.59375 C10.07515625 69.04375 6.11515625 57.49375 2.03515625 45.59375 C-0.93484375 45.26375 -3.90484375 44.93375 -6.96484375 44.59375 C-13.40835119 37.98502442 -13.33289713 28.288724 -13.34204102 19.55834961 C-13.17271734 12.9547263 -11.75752935 7.06891775 -7.57421875 1.86328125 C-5.2483569 0.02856013 -2.87699922 0.13304043 0 0 Z " fill="#FEFCFA" transform="translate(78.96484375,79.40625)"/>
<path d="M0 0 C3.96 0 7.92 0 12 0 C12 4.95 12 9.9 12 15 C13.629375 14.979375 15.25875 14.95875 16.9375 14.9375 C18.62499341 14.91613932 20.31391034 14.92794489 22 15 C23 16 23 16 23.09765625 18.50390625 C23.06510417 21.3359375 23.03255208 24.16796875 23 27 C19.37 27 15.74 27 12 27 C12.495 41.355 12.495 41.355 13 56 C16.3 56.33 19.6 56.66 23 57 C23 60.63 23 64.26 23 68 C17.55518355 69.81493882 11.99854153 69.74020057 6.625 67.75 C2.85753465 65.23835644 0.44977989 63.34933967 -1 59 C-1.0845387 56.5589224 -1.11605786 54.14740787 -1.09765625 51.70703125 C-1.0962413 51.00100266 -1.09482635 50.29497406 -1.09336853 49.56755066 C-1.08777764 47.31582374 -1.07522688 45.06419679 -1.0625 42.8125 C-1.05748382 41.28450665 -1.05292112 39.75651173 -1.04882812 38.22851562 C-1.0378112 34.48563865 -1.02055287 30.74283627 -1 27 C-4.3 27 -7.6 27 -11 27 C-11 23.04 -11 19.08 -11 15 C-6.545 14.505 -6.545 14.505 -2 14 C-1.34 9.38 -0.68 4.76 0 0 Z " fill="#FFFFFF" transform="translate(733,94)"/>
<path d="M0 0 C3.96 0 7.92 0 12 0 C12 4.95 12 9.9 12 15 C15.63 15 19.26 15 23 15 C23 18.96 23 22.92 23 27 C19.37 27 15.74 27 12 27 C12.10967098 31.27137254 12.2403499 35.54184766 12.375 39.8125 C12.4059375 41.02744141 12.436875 42.24238281 12.46875 43.49414062 C12.50742187 44.65751953 12.54609375 45.82089844 12.5859375 47.01953125 C12.63306885 48.62985229 12.63306885 48.62985229 12.68115234 50.27270508 C12.81592307 53.2160765 12.81592307 53.2160765 15 56 C16.96361864 56.57748803 16.96361864 56.57748803 19.125 56.6875 C20.40375 56.790625 21.6825 56.89375 23 57 C23 60.63 23 64.26 23 68 C17.57673557 69.80775481 12.61572398 69.50325829 7.1875 67.8125 C2.79532658 65.31498962 0.59431129 62.78293388 -1 58 C-1.08397157 55.64319787 -1.10728187 53.28405919 -1.09765625 50.92578125 C-1.0962413 50.2419487 -1.09482635 49.55811615 -1.09336853 48.8535614 C-1.08777876 46.67316278 -1.07522822 44.49286749 -1.0625 42.3125 C-1.05748367 40.83268378 -1.052921 39.35286594 -1.04882812 37.87304688 C-1.03781271 34.24866443 -1.02055512 30.6243423 -1 27 C-4.3 27 -7.6 27 -11 27 C-11.02687279 25.18757948 -11.04633715 23.37504767 -11.0625 21.5625 C-11.07410156 20.55316406 -11.08570313 19.54382813 -11.09765625 18.50390625 C-11 16 -11 16 -10 15 C-8.865625 14.87625 -7.73125 14.7525 -6.5625 14.625 C-5.386875 14.41875 -4.21125 14.2125 -3 14 C-0.81005752 10.71508627 -0.64722661 9.16904361 -0.375 5.3125 C-0.25125 3.559375 -0.1275 1.80625 0 0 Z " fill="#FFFFFF" transform="translate(417,94)"/>
<path d="M0 0 C4.29 0 8.58 0 13 0 C13 25.08 13 50.16 13 76 C8.71 76 4.42 76 0 76 C0 50.92 0 25.84 0 0 Z " fill="#F26221" transform="translate(935,86)"/>
<path d="M0 0 C1.65322266 0.01740234 1.65322266 0.01740234 3.33984375 0.03515625 C4.99693359 0.04869141 4.99693359 0.04869141 6.6875 0.0625 C7.54214844 0.07410156 8.39679687 0.08570312 9.27734375 0.09765625 C9.60734375 2.07765625 9.93734375 4.05765625 10.27734375 6.09765625 C11.20546875 5.29328125 12.13359375 4.48890625 13.08984375 3.66015625 C16.57945675 0.63582498 19.38820323 -0.03117187 23.96484375 0.03515625 C26.09953125 0.06609375 26.09953125 0.06609375 28.27734375 0.09765625 C28.27734375 4.71765625 28.27734375 9.33765625 28.27734375 14.09765625 C26.48296875 14.00484375 26.48296875 14.00484375 24.65234375 13.91015625 C20.49616434 13.92486839 17.78266563 14.73360196 14.27734375 17.09765625 C11.20136256 21.15688647 10.86910724 24.33795084 10.765625 29.3671875 C10.7476738 30.04819016 10.7297226 30.72919281 10.71122742 31.43083191 C10.65735744 33.59054505 10.62330593 35.75004024 10.58984375 37.91015625 C10.55664984 39.38088956 10.52215826 40.85159418 10.48632812 42.32226562 C10.39921677 45.91408973 10.33895739 49.50494359 10.27734375 53.09765625 C5.65734375 53.09765625 1.03734375 53.09765625 -3.72265625 53.09765625 C-3.74729696 45.71037034 -3.76548785 38.32310813 -3.77758789 30.93579102 C-3.78262988 28.4204873 -3.78946328 25.90518653 -3.7980957 23.38989258 C-3.81016719 19.7833585 -3.81588574 16.17686302 -3.8203125 12.5703125 C-3.82547379 11.43803726 -3.83063507 10.30576202 -3.83595276 9.13917542 C-3.83602829 8.09817184 -3.83610382 7.05716827 -3.83618164 5.98461914 C-3.83840225 5.06306534 -3.84062286 4.14151154 -3.84291077 3.19203186 C-3.65877403 -0.0149287 -3.24614435 0.11643272 0 0 Z " fill="#FFFFFF" transform="translate(572.72265625,108.90234375)"/>
<path d="M0 0 C2.97819304 0.09205324 4.02122686 0.31014179 6.625 1.9375 C8.90691511 5.64561205 8.64242724 9.20100793 7.64196777 13.40447998 C6.95585838 15.64323718 6.20415255 17.84770254 5.421875 20.0546875 C5.14281311 20.86688751 4.86375122 21.67908752 4.57623291 22.51589966 C3.98603861 24.22702776 3.39070496 25.93639092 2.79052734 27.64404297 C1.88148448 30.23154259 0.98822061 32.82405852 0.09765625 35.41796875 C-0.48084902 37.08886111 -1.06024763 38.75944449 -1.640625 40.4296875 C-2.03619598 41.5738765 -2.03619598 41.5738765 -2.4397583 42.74118042 C-3.81137403 46.63238422 -5.26442259 50.49049348 -6.82714844 54.30908203 C-7.27063629 55.40616989 -7.27063629 55.40616989 -7.7230835 56.52542114 C-9.16459098 58.83998279 -10.32361176 59.47124549 -12.875 60.375 C-16.88608265 60.30463013 -19.03306426 60.24324624 -21.875 57.3125 C-24.02620175 50.99334485 -21.42469715 44.31581019 -19.29296875 38.25390625 C-19.03751785 37.50970932 -18.78206696 36.76551239 -18.51887512 35.99876404 C-17.98040536 34.43531174 -17.43817063 32.87315148 -16.89233398 31.31225586 C-16.06691721 28.95014084 -15.25420295 26.58394887 -14.44335938 24.21679688 C-6.30661567 0.61031765 -6.30661567 0.61031765 0 0 Z " fill="#FEFCFA" transform="translate(119.875,112.625)"/>
</svg>
